<?xml version="1.0" encoding="UTF-8" standalone="no"?>
<!-- Created with Inkscape (http://www.inkscape.org/) -->

<svg
   xmlns:dc="http://purl.org/dc/elements/1.1/"
   xmlns:cc="http://creativecommons.org/ns#"
   xmlns:rdf="http://www.w3.org/1999/02/22-rdf-syntax-ns#"
   xmlns:svg="http://www.w3.org/2000/svg"
   xmlns="http://www.w3.org/2000/svg"
   xmlns:sodipodi="http://sodipodi.sourceforge.net/DTD/sodipodi-0.dtd"
   xmlns:inkscape="http://www.inkscape.org/namespaces/inkscape"
   id="svg4155"
   version="1.1"
   inkscape:version="0.91 r13725"
   xml:space="preserve"
   width="160.83749"
   height="121.25"
   viewBox="0 0 160.83749 121.25"
   sodipodi:docname="ap_logo _zils 2-02.svg"><metadata
     id="metadata4161"><rdf:RDF><cc:Work
         rdf:about=""><dc:format>image/svg+xml</dc:format><dc:type
           rdf:resource="http://purl.org/dc/dcmitype/StillImage" /><dc:title></dc:title></cc:Work></rdf:RDF></metadata><defs
     id="defs4159" /><sodipodi:namedview
     pagecolor="#ffffff"
     bordercolor="#666666"
     borderopacity="1"
     objecttolerance="10"
     gridtolerance="10"
     guidetolerance="10"
     inkscape:pageopacity="0"
     inkscape:pageshadow="2"
     inkscape:window-width="1918"
     inkscape:window-height="1054"
     id="namedview4157"
     showgrid="false"
     inkscape:zoom="2.5718276"
     inkscape:cx="115.26382"
     inkscape:cy="7.6355293"
     inkscape:window-x="0"
     inkscape:window-y="24"
     inkscape:window-maximized="0"
     inkscape:current-layer="g4165" /><g
     id="g4163"
     inkscape:groupmode="layer"
     inkscape:label="ink_ext_XXXXXX"
     transform="matrix(1.25,0,0,-1.25,0,121.25)"><g
       id="g4165"
       transform="scale(0.1,0.1)"><path
         d="m 295.266,203.035 696.141,0 0,560.598 -696.141,0 0,-560.598 z"
         style="fill:#007bff;fill-opacity:1;fill-rule:nonzero;stroke:none"
         id="path4167"
         inkscape:connector-curvature="0" /><path
         d="m 1070.18,203.035 75.4805,0 0,560.598 -75.4805,0 0,-560.598 z"
         style="fill:#007bff;fill-opacity:1;fill-rule:nonzero;stroke:none"
         id="path4169"
         inkscape:connector-curvature="0" /><path
         d="m 141.008,203.035 75.4844,0 0,560.598 -75.4844,0 0,-560.598 z"
         style="fill:#007bff;fill-opacity:1;fill-rule:nonzero;stroke:none"
         id="path4171"
         inkscape:connector-curvature="0" /><path
         d="m 733.418,662.363 0,-168.769 52.449,0 c 27.375,0 48.645,7.59 63.86,22.801 13.679,13.683 20.527,34.21 20.527,61.585 0,27.364 -6.848,47.887 -20.527,61.571 -15.215,15.183 -36.485,22.812 -63.86,22.812 l -52.449,0 z m 152.805,11.399 c 22.8,-22.805 34.207,-54.739 34.207,-95.782 0,-41.054 -11.407,-72.992 -34.207,-95.792 -21.313,-21.309 -50.176,-31.922 -86.672,-31.922 l -66.133,0 0,-189.297 -52.449,0 0,444.722 118.582,0 c 36.496,0 65.359,-10.652 86.672,-31.929"
         style="fill:#ffffff;fill-opacity:1;fill-rule:nonzero;stroke:none"
         id="path4173"
         inkscape:connector-curvature="0" /><path
         d="m 525.891,705.691 -45.618,0 -114.035,-444.722 54.739,0 79.824,323.844 4.558,0 79.825,-323.844 54.738,0 -114.031,444.722"
         style="fill:#ffffff;fill-opacity:1;fill-rule:nonzero;stroke:none"
         id="path4175"
         inkscape:connector-curvature="0" /><path
         d="m 236.492,837.188 233.684,0 0,-36.485 -194.91,0 0,-634.726 194.91,0 0,-36.497 -233.684,0 0,707.708"
         style="fill:#7c7f80;fill-opacity:1;fill-rule:nonzero;stroke:none"
         id="path4177"
         inkscape:connector-curvature="0" /><path
         d="m 1050.18,129.48 -233.688,0 0,36.497 194.918,0 0,634.726 -194.918,0 0,36.485 233.688,0 0,-707.708"
         style="fill:#7c7f80;fill-opacity:1;fill-rule:nonzero;stroke:none"
         id="path4179"
         inkscape:connector-curvature="0" /></g></g></svg>